<?xml version="1.0" encoding="utf-8"?>
<!-- Generator: Adobe Illustrator 26.0.1, SVG Export Plug-In . SVG Version: 6.00 Build 0)  -->
<svg version="1.1" id="图层_1" xmlns="http://www.w3.org/2000/svg" xmlns:xlink="http://www.w3.org/1999/xlink" x="0px" y="0px"
	 viewBox="0 0 2800 4000" style="enable-background:new 0 0 2800 4000;" xml:space="preserve">
<style type="text/css">
	.st0{fill:#BEAD6D;}
	.st1{fill:none;stroke:#FF0000;stroke-width:2;stroke-miterlimit:10;}
</style>
<path class="st0" d="M956,1680L0,0v1992.3l71.4-57.4c9.8-7.8,18.6-2.9,18.6-2.9l179.1,81.2c20.6,9.8,2.9,17.6,2.9,17.6l-157.6,79.3
	c-2.9,2,0,3.9,0,3.9l74.4,31.3c20.6,9.8,0,15.7,0,15.7L0,2224.5V4000l956-1680l1044,1680h800L1280,2000L2800,0h-800L956,1680z"/>
<path class="st1" d="M1048.2,1436.8"/>
<path class="st1" d="M0,0"/>
<polyline class="st0" points="0,0 1052,1443 1045,1452 44.8,78.8 "/>
<polyline class="st0" points="0,4000 1052,2557 1045,2548 44.8,3921.2 "/>
<polygon class="st0" points="2800,0 1538,2000 2800,4000 2692.6,3858.7 1530,2005 1336,2005 1320,2000 1336,1995 1530,1995 
	2692.6,141.3 "/>
</svg>
