<svg id="图层_1" data-name="图层 1" xmlns="http://www.w3.org/2000/svg" viewBox="0 0 2950.9 4973.5">
    <defs>
        <style>.cls-1{fill:#bead6d;}.cls-2{fill:none;stroke:red;stroke-miterlimit:10;stroke-width:2px;}</style>
    </defs>
    <path class="cls-1"
          d="M1633.6,6158.72q5.43-53.43,7.41-85.54,3-47.82,5.91-123.75,2.22-58.12,2.23-83.21V5838.8q28.66.71,49.51.7,20.1,0,52.69-1.05t61.28-1.05q32.85,0,57.6,3.75a139,139,0,0,1,46.2,15.46,112.21,112.21,0,0,1,35.91,30.71q14.46,19,22.06,44.41a182.24,182.24,0,0,1,7.6,52.38,217.66,217.66,0,0,1-5.88,51,185,185,0,0,1-16.43,44.18,139.06,139.06,0,0,1-56.88,58.13,141.13,141.13,0,0,1-27.22,11.71q-13.72,4.23-37.51,6.8a572.64,572.64,0,0,1-60.07,2.81l-99-.7Q1665,6158,1633.6,6158.72Zm106-70.54q13.47,1.17,28.18,1.17,25,0,44.6-4.22a71.73,71.73,0,0,0,34.42-18.05q14.82-13.82,21.93-35.5a141.69,141.69,0,0,0,7.11-44.42q0-27.89-10.54-47t-28.08-26.6q-17.52-7.5-47.68-7.5-17.65,0-41.68,1.4Z"
          transform="translate(-1633.6 -1196)"/>
    <path class="cls-1"
          d="M2021.23,6158.72q6.13-60.47,9-101.25t5.65-108.39q2.84-67.62,2.83-89.65l-.24-20.63q57.84.48,140,.47,75.75,0,133.6-.47l-.49,7.71q-.26,2.81-1.23,20.32l-1.47,25.46q-.5,8.19-.49,16.59Q2261,5907,2228.89,5907q-35.29,0-47.68.12t-38.62,1.06l-3,53.9q28.95.7,67.44.71,13.74,0,73.08-1.64-2.45,30-4.65,71.48-42.39-.47-65.18-.47-33.81,0-75.72,1.64l-2.91,56.95h28.17q12.49,0,51.7-.7l50.72-1.17q11.28-.23,37.73-1.88-2.94,34.69-4.9,71.72-59.82-.47-131.17-.47l-107.88.24Z"
          transform="translate(-1633.6 -1196)"/>
    <path class="cls-1"
          d="M2352.22,6158.72q6.14-60.47,9-101.25t5.65-108.39q2.84-67.62,2.83-89.65l-.25-20.63q57.85.48,140,.47,75.75,0,133.6-.47l-.49,7.71q-.26,2.81-1.23,20.32l-1.47,25.46q-.49,8.19-.49,16.59Q2592,5907,2559.88,5907q-35.31,0-47.69.12t-38.61,1.06l-3,53.9q28.93.7,67.44.71,13.74,0,73.08-1.64-2.45,30-4.65,71.48-42.41-.47-65.18-.47-33.83,0-75.72,1.64l-2.91,56.95h28.17q12.49,0,51.7-.7l50.72-1.17q11.27-.23,37.73-1.88-2.94,34.69-4.9,71.72-59.84-.47-131.17-.47l-107.88.24Z"
          transform="translate(-1633.6 -1196)"/>
    <path class="cls-1"
          d="M2680.51,6153.8q-3.2-49.92-7.36-79.92,27.51,11.71,49,16.29t37.71,4.57q21.36,0,34-6t12.65-17.69a23.58,23.58,0,0,0-1.23-7.62,30.46,30.46,0,0,0-4.67-8.2,63.77,63.77,0,0,0-9.82-10l-46.2-38.44q-16.21-13.12-22.6-19-13-11.94-20.27-22.26a72.6,72.6,0,0,1-13.88-43.6,77.53,77.53,0,0,1,5.27-28,84.78,84.78,0,0,1,15.82-25.67q10.53-12,28-20.62a128.29,128.29,0,0,1,37.26-11.84,259.87,259.87,0,0,1,41-3.16q41.43,0,90.22,9.14.74,16.17,1.72,29.65t4.66,47.22a233,233,0,0,0-41.19-12.07,183.38,183.38,0,0,0-32.12-3.4q-19.12,0-31.75,6.8T2794,5926.93a22.45,22.45,0,0,0,2,9.14q2,4.45,7.35,10.43a126.63,126.63,0,0,0,14.22,13.12q8.82,7.16,27.71,21.21l17.65,13.36a223.88,223.88,0,0,1,16.92,14.77,164.37,164.37,0,0,1,15.69,17.11,95.37,95.37,0,0,1,10.17,15.47,64.61,64.61,0,0,1,5.27,14.18,65.79,65.79,0,0,1,1.72,15.35,82.06,82.06,0,0,1-10.54,40.19,86.18,86.18,0,0,1-29.92,31.41,128.62,128.62,0,0,1-42.53,17.23,235.08,235.08,0,0,1-48.92,4.92Q2741.08,6164.82,2680.51,6153.8Z"
          transform="translate(-1633.6 -1196)"/>
    <path class="cls-1"
          d="M2917.1,6158.72l20.36-33.75,126.83-228.28,13.49-25.54q5.88-11.25,16.43-32.35,43.14.48,63,.47,34.58,0,64-.47l35.77,97.74,72.77,188,14.22,34.22q-42.48-.47-51.55-.47-20.61,0-60.62.47-10.77-38.67-31.08-90.93H3077.29q-21.32,41.25-44.1,90.93-45.64-.47-56-.47Q2958.58,6158.25,2917.1,6158.72Zm189.83-159.14h76.15q-28.39-82.59-31.08-91-16.17,34.4-27.44,56.38Z"
          transform="translate(-1633.6 -1196)"/>
    <path class="cls-1"
          d="M3366.76,6153.8q-3.2-49.92-7.36-79.92,27.51,11.71,49,16.29t37.71,4.57q21.36,0,34-6t12.65-17.69a23.58,23.58,0,0,0-1.23-7.62,30.46,30.46,0,0,0-4.67-8.2,63.44,63.44,0,0,0-9.83-10l-46.19-38.44q-16.21-13.12-22.6-19-13-11.94-20.27-22.26a72.42,72.42,0,0,1-13.88-43.6,77.53,77.53,0,0,1,5.27-28,84.78,84.78,0,0,1,15.82-25.67q10.53-12,28-20.62a128.29,128.29,0,0,1,37.26-11.84,259.87,259.87,0,0,1,41-3.16q41.43,0,90.22,9.14.74,16.17,1.72,29.65t4.66,47.22a233,233,0,0,0-41.19-12.07,183.48,183.48,0,0,0-32.12-3.4q-19.12,0-31.75,6.8t-12.63,16.88a22.44,22.44,0,0,0,2,9.14,41.91,41.91,0,0,0,7.36,10.43,126.63,126.63,0,0,0,14.22,13.12q8.82,7.16,27.7,21.21l17.66,13.36a221.94,221.94,0,0,1,16.91,14.77,163.42,163.42,0,0,1,15.7,17.11,95.37,95.37,0,0,1,10.17,15.47,64.61,64.61,0,0,1,5.27,14.18,65.79,65.79,0,0,1,1.72,15.35,82.06,82.06,0,0,1-10.54,40.19,86.26,86.26,0,0,1-29.92,31.41A128.62,128.62,0,0,1,3516,6159.9a235.08,235.08,0,0,1-48.92,4.92Q3427.31,6164.82,3366.76,6153.8Z"
          transform="translate(-1633.6 -1196)"/>
    <path class="cls-1"
          d="M3721.77,6158.72q12.18-113.9,14.62-250.78L3632,5910.52l1.22-26q1-20.85,1.47-45.7,69.61.48,162.26.47l60.54-.23h58.83l31.86-.24-1.47,23q-1,18.46-1.35,30.54t-.36,18.22q-52.42-2.58-86.48-2.58h-17.14q-3.71,41.42-5.68,76.5-2.72,50.3-4.2,97.67t-1.47,76.61q-40.18-.47-52-.47Q3767.59,6158.25,3721.77,6158.72Z"
          transform="translate(-1633.6 -1196)"/>
    <path class="cls-1"
          d="M2677,2913,1700,1196V3231.64l73-58.64c10-8,19-3,19-3l183,83c21,10,3,18,3,18l-161,81c-3,2,0,4,0,4l76,32c21,10,0,16,0,16l-193,64.89V5283l977-1712L3738,5283h804.45l-1558-2041,1558-2041L3733,1196Z"
          transform="translate(-1633.6 -1196)"/>
    <path class="cls-2" d="M2771,2664" transform="translate(-1633.6 -1196)"/>
    <path class="cls-2" d="M1700,1196" transform="translate(-1633.6 -1196)"/>
    <polyline class="cls-1" points="66.4 0 1140.4 1473 1134.4 1484 112.82 81.58"/>
    <polyline class="cls-1" points="66.4 4087 1140.4 2594 1134.4 2584 120.4 3992"/>
    <polygon class="cls-1"
             points="2908.84 5 1637.4 2046 2908.84 4087 2829.8 3983.45 1629.4 2051 1432.4 2051 1415.4 2046 1432.4 2041 1629.4 2041 2839.27 96.15 2908.84 5"/>
    <path class="cls-1" d="M4081.5,6163.5a5.76,5.76,0,0,1-6,6c-4,0-9-6-9-6s4-8,8-8S4081.5,6158.5,4081.5,6163.5Z"
          transform="translate(-1633.6 -1196)"/>
    <path class="cls-1" d="M4115,6163.45c0,4,3.2,6,6.4,6,4.27,0,9.6-6,9.6-6s-4.27-8-8.54-8S4115,6158.45,4115,6163.45Z"
          transform="translate(-1633.6 -1196)"/>
    <path class="cls-1" d="M4099,6155.5c4.54,0,5.54,5,5.54,8s-2.09,6-5.54,6-6.46-3-6.46-6S4093.41,6155.5,4099,6155.5Z"
          transform="translate(-1633.6 -1196)"/>
    <path class="cls-1"
          d="M4208.1,6161.23c.53-3.21.16-7.48-.41-11.7a7.08,7.08,0,0,1,7-8h96.92c4.16,0,6.23,2.86,5.87,7-.41,4.69-.53,10.88,0,13,1,4,6,8,12,8h21c5,0,7.9-3.7,9-5,7-8,1-20,4-24s12.48-7.48,19-14c7-7,12-16,15-28,1.54-6.17,1.46-32.8,1-44-.13-3.19,2.17-5.52,5-7,23-12,123-36,123-45,0-6-23.95-15.11-40-22-19.78-8.49-23.35-2.18-1-13,31-15,99-46,99-54,0-5.56-37.94-21.52-73-36-27.95-11.55-50-23-57-22-9.13,1.3-38.05,28.11-57,42-15,11-12,10-12-6,0-22.61,5-49-9-88-7.72-21.5-22-34-26-38-8-8-10-2-1-11,7-7,17-18,24-31,9.12-16.94,20-41,20-76,0-23.78-7.05-40.53-12-48-2.09-3.16-3-4-8-2-6.76,2.71-16.92,10.92-26,20-14,14-25,27-35,55-6.89,19.29-9.11,40-7.39,57.18,1.39,13.82-1.61,8.82-8.93,7-14.09-3.57-44.18-7.29-65.68-1.15-14,4-12,7-10-10a128.17,128.17,0,0,0,0-22c-1.77-15.93-3.57-31.84-21-60-13-21-32.47-36.39-43.42-44-8.58-6-10.58-5-14.58,4-8,17.91-9,56-6,77,2.55,17.84,15.06,48.91,40,74,5,5,6,4,0,9-3.6,3-7.19,8.24-11,13a106.68,106.68,0,0,0-17.95,32.85l-.12.34c-2.41,6.28-6.93,16.94-6.93,29.81v176c0,1.6,0,2.75-1,4-2.18,2.72-5.59,7.78-7,12-2,6-2,5-4,15.29s-1,38.71,0,45.71,2,13,8,23,12,14,12,14c4.24,2.82,9,4.65,12.09,6.89a7,7,0,0,1,2.85,5.84l-.15,6.9a7.09,7.09,0,0,1-7.19,6.93,13.12,13.12,0,0,0-4.6.44l-.06,0a7.06,7.06,0,0,0-1.75,11.42,4.82,4.82,0,0,0,3,1.55h42.84c6.12,0,9.75-2.49,11.56-4.26A7.23,7.23,0,0,0,4208.1,6161.23Z"
          transform="translate(-1633.6 -1196)"/>
</svg>