<?xml version="1.0" encoding="utf-8"?>
<!-- Generator: Adobe Illustrator 26.0.1, SVG Export Plug-In . SVG Version: 6.00 Build 0)  -->
<svg version="1.1" id="图层_1" xmlns="http://www.w3.org/2000/svg" xmlns:xlink="http://www.w3.org/1999/xlink" x="0px" y="0px"
	 viewBox="0 0 518 573.7" style="enable-background:new 0 0 518 573.7;" xml:space="preserve">
<style type="text/css">
	.st0{fill:#BEAD6D;}
</style>
<path class="st0" d="M15,567.7c0.1,3.2-2.3,5.9-5.5,6c-0.2,0-0.3,0-0.5,0c-4,0-9-6-9-6s4-8,8-8S15,562.7,15,567.7z"/>
<path class="st0" d="M48.5,567.7c0,4,3.2,6,6.4,6c4.3,0,9.6-6,9.6-6s-4.3-8-8.5-8S48.5,562.7,48.5,567.7z"/>
<path class="st0" d="M32.5,559.7c4.5,0,5.5,5,5.5,8s-2.1,6-5.5,6s-6.5-3-6.5-6S26.9,559.7,32.5,559.7z"/>
<path class="st0" d="M141.6,565.5c0.5-3.2,0.2-7.5-0.4-11.7c-0.5-3.9,2.2-7.4,6.1-7.9c0.3,0,0.6-0.1,0.9-0.1h96.9
	c4.2,0,6.2,2.9,5.9,7c-0.4,4.7-0.5,10.9,0,13c1,4,6,8,12,8h21c5,0,7.9-3.7,9-5c7-8,1-20,4-24s12.5-7.5,19-14c7-7,12-16,15-28
	c1.5-6.2,1.5-32.8,1-44c-0.1-3.2,2.2-5.5,5-7c23-12,123-36,123-45c0-6-24-15.1-40-22c-19.8-8.5-23.4-2.2-1-13c31-15,99-46,99-54
	c0-5.6-37.9-21.5-73-36c-28-11.5-50-23-57-22c-9.1,1.3-38,28.1-57,42c-15,11-12,10-12-6c0-22.6,5-49-9-88c-7.7-21.5-22-34-26-38
	c-8-8-10-2-1-11c7-7,17-18,24-31c9.1-16.9,20-41,20-76c0-23.8-7-40.5-12-48c-2.1-3.2-3-4-8-2c-6.8,2.7-16.9,10.9-26,20
	c-14,14-25,27-35,55c-6.9,19.3-9.1,40-7.4,57.2c1.4,13.8-1.6,8.8-8.9,7c-14.1-3.6-44.2-7.3-65.7-1.1c-14,4-12,7-10-10
	c0.6-7.3,0.6-14.7,0-22c-1.8-15.9-3.6-31.8-21-60c-13-21-32.5-36.4-43.4-44c-8.6-6-10.6-5-14.6,4c-8,17.9-9,56-6,77
	c2.5,17.8,15.1,48.9,40,74c5,5,6,4,0,9c-3.6,3-7.2,8.2-11,13c-7.9,9.8-13.9,20.9-18,32.9l-0.1,0.3c-2.4,6.3-6.9,16.9-6.9,29.8v176
	c0,1.6,0,2.8-1,4c-2.2,2.7-5.6,7.8-7,12c-2,6-2,5-4,15.3s-1,38.7,0,45.7s2,13,8,23c6,10,12,14,12,14c4.2,2.8,9,4.6,12.1,6.9
	c1.9,1.4,2.9,3.5,2.9,5.8l-0.1,6.9c-0.1,3.9-3.3,7-7.2,6.9c-1.5-0.1-3.1,0-4.6,0.4h-0.1c-3.5,1.7-4.9,6-3.2,9.5
	c0.4,0.7,0.8,1.4,1.4,2c0.8,0.9,1.8,1.4,3,1.5H128c6.1,0,9.8-2.5,11.6-4.3C140.7,568.4,141.4,567,141.6,565.5z"/>
</svg>
