<?xml version="1.0" encoding="utf-8"?>
<!-- Generator: Adobe Illustrator 26.0.1, SVG Export Plug-In . SVG Version: 6.00 Build 0)  -->
<svg version="1.1" id="图层_1" xmlns="http://www.w3.org/2000/svg" x="0px" y="0px"
	 viewBox="0 0 2314.6 326.1" style="enable-background:new 0 0 2314.6 326.1;" xml:space="preserve">
<style type="text/css">
	.st0{fill:#BEAD6D;}
</style>
<path class="st0" d="M0,326.1c3.6-35.6,6.1-64.1,7.4-85.5c2-31.9,4-73.1,5.9-123.8c1.5-38.7,2.2-66.5,2.2-83.2V6.2
	c19.1,0.5,35.6,0.7,49.5,0.7c13.4,0,31-0.4,52.7-1c21.7-0.7,42.2-1,61.3-1c21.9,0,41.1,1.2,57.6,3.8c16.2,2.4,31.8,7.6,46.2,15.5
	c14,7.6,26.3,18,35.9,30.7c9.6,12.7,17,27.5,22.1,44.4c5.1,17,7.6,34.6,7.6,52.4c0.1,17.2-1.9,34.3-5.9,51
	c-3.6,15.4-9.1,30.2-16.4,44.2c-12.7,24.6-32.6,44.9-56.9,58.1c-8.6,4.8-17.8,8.8-27.2,11.7c-9.1,2.8-21.7,5.1-37.5,6.8
	c-20,2-40,2.9-60.1,2.8l-99-0.7C36.1,325.4,20.9,325.6,0,326.1z M106,255.5c9,0.8,18.4,1.2,28.2,1.2c16.7,0,31.5-1.4,44.6-4.2
	c12.9-2.7,24.8-9,34.4-18c9.9-9.2,17.2-21,21.9-35.5c4.7-14.3,7.1-29.3,7.1-44.4c0-18.6-3.5-34.3-10.5-47
	c-7-12.7-16.4-21.6-28.1-26.6c-11.7-5-27.6-7.5-47.7-7.5c-11.8,0-25.7,0.5-41.7,1.4L106,255.5z"/>
<path class="st0" d="M387.6,326.1c4.1-40.3,7.1-74.1,9-101.2s3.8-63.3,5.7-108.4c1.9-45.1,2.8-75,2.8-89.6l-0.2-20.6
	c38.6,0.3,85.2,0.5,140,0.5c50.5,0,95-0.2,133.6-0.5l-0.5,7.7c-0.2,1.9-0.6,8.6-1.2,20.3l-1.5,25.5c-0.3,5.5-0.5,11-0.5,16.6
	c-31.6-1.3-58.1-1.9-79.5-1.9c-23.5,0-39.4,0-47.7,0.1c-8.3,0.1-21.1,0.4-38.6,1.1l-3,53.9c19.3,0.5,41.8,0.7,67.4,0.7
	c9.2,0,33.5-0.5,73.1-1.6c-1.6,20-3.2,43.8-4.6,71.5c-28.3-0.3-50-0.5-65.2-0.5c-22.5,0-47.8,0.5-75.7,1.6l-2.9,57h28.2
	c8.3,0,25.6-0.2,51.7-0.7l50.7-1.2c7.5-0.2,20.1-0.8,37.7-1.9c-2,23.1-3.6,47-4.9,71.7c-39.9-0.3-83.6-0.5-131.2-0.5l-107.9,0.2
	L387.6,326.1z"/>
<path class="st0" d="M718.6,326.1c4.1-40.3,7.1-74.1,9-101.2s3.8-63.3,5.6-108.4c1.9-45.1,2.8-75,2.8-89.6l-0.2-20.6
	c38.6,0.3,85.2,0.5,140,0.5c50.5,0,95-0.2,133.6-0.5l-0.5,7.7c-0.2,1.9-0.6,8.6-1.2,20.3l-1.5,25.5c-0.3,5.5-0.5,11-0.5,16.6
	c-31.6-1.3-58.1-1.9-79.5-1.9c-23.5,0-39.4,0-47.7,0.1c-8.3,0.1-21.1,0.4-38.6,1.1l-3,53.9c19.3,0.5,41.8,0.7,67.4,0.7
	c9.2,0,33.5-0.5,73.1-1.6c-1.6,20-3.2,43.8-4.6,71.5c-28.3-0.3-50-0.5-65.2-0.5c-22.6,0-47.8,0.5-75.7,1.6l-2.9,57h28.2
	c8.3,0,25.6-0.2,51.7-0.7l50.7-1.2c7.5-0.2,20.1-0.8,37.7-1.9c-2,23.1-3.6,47-4.9,71.7c-39.9-0.3-83.6-0.5-131.2-0.5l-107.9,0.2
	L718.6,326.1z"/>
<path class="st0" d="M1046.9,321.2c-2.1-33.3-4.6-59.9-7.4-79.9c18.3,7.8,34.7,13.2,49,16.3s26.9,4.6,37.7,4.6c14.2,0,25.6-2,34-6
	s12.6-9.9,12.6-17.7c0-2.6-0.4-5.2-1.2-7.6c-1.1-3-2.7-5.7-4.7-8.2c-2.9-3.7-6.2-7-9.8-10l-46.2-38.4c-10.8-8.7-18.3-15.1-22.6-19
	c-8.7-8-15.4-15.4-20.3-22.3c-9.2-12.7-14.1-28-13.9-43.6c0-9.6,1.8-19.1,5.3-28c3.7-9.4,9.1-18.1,15.8-25.7c7-8,16.4-14.9,28-20.6
	c11.7-5.8,24.3-9.8,37.3-11.8c13.6-2.1,27.3-3.2,41-3.2c27.6,0,57.7,3,90.2,9.1c0.5,10.8,1.1,20.7,1.7,29.6s2.2,24.7,4.7,47.2
	c-13.3-5.3-27.1-9.3-41.2-12.1c-10.6-2.1-21.3-3.2-32.1-3.4c-12.7,0-23.3,2.3-31.8,6.8s-12.7,10.2-12.7,17c0,3.2,0.7,6.3,2,9.1
	c1.3,3,3.8,6.4,7.4,10.4c4.4,4.7,9.2,9.1,14.2,13.1c5.9,4.8,15.1,11.8,27.7,21.2l17.6,13.4c5.9,4.6,11.5,9.6,16.9,14.8
	c5.6,5.3,10.9,11,15.7,17.1c3.9,4.8,7.3,10,10.2,15.5c2.3,4.5,4.1,9.3,5.3,14.2c1.2,5,1.8,10.2,1.7,15.4c0,14.1-3.6,27.9-10.5,40.2
	c-7.1,12.9-17.4,23.7-29.9,31.4c-13,8.2-27.4,14.1-42.5,17.2c-16.1,3.3-32.5,5-48.9,4.9C1120.7,332.2,1087.3,328.5,1046.9,321.2z"/>
<path class="st0" d="M1283.5,326.1l20.4-33.8l126.8-228.3l13.5-25.5c3.9-7.5,9.4-18.3,16.4-32.4c28.8,0.3,49.8,0.5,63,0.5
	c23.1,0,44.4-0.2,64-0.5l35.8,97.7l72.8,188l14.2,34.2c-28.3-0.3-45.5-0.5-51.6-0.5c-13.7,0-33.9,0.2-60.6,0.5
	c-7.2-25.8-17.5-56.1-31.1-90.9h-123.4c-14.2,27.5-28.9,57.8-44.1,90.9c-30.4-0.3-49.1-0.5-56-0.5
	C1331.2,325.6,1311.2,325.8,1283.5,326.1z M1473.3,166.9h76.1c-18.9-55.1-29.3-85.4-31.1-91c-10.8,22.9-19.9,41.7-27.4,56.4
	L1473.3,166.9z"/>
<path class="st0" d="M1733.2,321.2c-2.1-33.3-4.6-59.9-7.4-79.9c18.3,7.8,34.7,13.2,49,16.3s26.9,4.6,37.7,4.6c14.2,0,25.6-2,34-6
	s12.6-9.9,12.6-17.7c0-2.6-0.4-5.2-1.2-7.6c-1.1-3-2.7-5.7-4.7-8.2c-2.9-3.7-6.2-7-9.8-10l-46.2-38.4c-10.8-8.7-18.3-15.1-22.6-19
	c-8.7-8-15.4-15.4-20.3-22.3c-9.2-12.7-14.1-27.9-13.9-43.6c0-9.6,1.8-19.1,5.3-28c3.7-9.4,9.1-18.1,15.8-25.7
	c7-8,16.4-14.9,28-20.6c11.7-5.8,24.3-9.8,37.3-11.8c13.6-2.1,27.3-3.2,41-3.2c27.6,0,57.7,3,90.2,9.1c0.5,10.8,1.1,20.7,1.7,29.6
	s2.2,24.7,4.7,47.2c-13.3-5.3-27.1-9.3-41.2-12.1c-10.6-2.1-21.3-3.2-32.1-3.4c-12.7,0-23.3,2.3-31.8,6.8s-12.6,10.2-12.6,16.9
	c0,3.2,0.7,6.3,2,9.1c1.9,3.8,4.4,7.3,7.4,10.4c4.4,4.7,9.2,9.1,14.2,13.1c5.9,4.8,15.1,11.8,27.7,21.2l17.7,13.4
	c5.9,4.6,11.5,9.6,16.9,14.8c5.6,5.3,10.9,11,15.7,17.1c3.9,4.8,7.3,10,10.2,15.5c2.3,4.5,4.1,9.3,5.3,14.2c1.2,5,1.8,10.2,1.7,15.4
	c0,14.1-3.6,27.9-10.5,40.2c-7.1,12.8-17.4,23.7-29.9,31.4c-13,8.3-27.5,14.1-42.6,17.3c-16.1,3.3-32.5,5-48.9,4.9
	C1807,332.2,1773.5,328.5,1733.2,321.2z"/>
<path class="st0" d="M2088.2,326.1c8.1-75.9,13-159.5,14.6-250.8l-104.4,2.6l1.2-26c0.7-13.9,1.2-29.1,1.5-45.7
	c46.4,0.3,100.5,0.5,162.3,0.5l60.5-0.2h58.8l31.9-0.2l-1.5,23c-0.7,12.3-1.1,22.5-1.4,30.5c-0.2,8.1-0.4,14.1-0.4,18.2
	c-34.9-1.7-63.8-2.6-86.5-2.6h-17.1c-2.5,27.6-4.4,53.1-5.7,76.5c-1.8,33.5-3.2,66.1-4.2,97.7s-1.5,57.1-1.5,76.6
	c-26.8-0.3-44.1-0.5-52-0.5C2137.5,325.6,2118.7,325.8,2088.2,326.1z"/>
</svg>
